<svg height="800" width="800" version="1.1" id="Layer_1" xmlns="http://www.w3.org/2000/svg" viewBox="0 0 512.009 512.009" xml:space="preserve"><circle style="fill:#f7b239" cx="256.004" cy="256.004" r="256.004"/><path style="fill:#e09b2d" d="M121.499 390.501C29.407 298.407 22.15 153.608 99.723 53.204A258.273 258.273 0 0 0 74.98 74.981c-99.974 99.974-99.974 262.065 0 362.038s262.065 99.974 362.038 0a258.428 258.428 0 0 0 21.777-24.743c-100.403 77.574-245.202 70.317-337.296-21.775z"/><path style="fill:#fff" d="M377.624 213.806v44.344c-67.167 67.167-176.072 67.167-243.252 0v-44.344c67.18 67.18 176.085 67.18 243.252 0z"/><path style="fill:#f95428" d="M286.95 339.841c19.736 0 36.892 11.02 45.66 27.239-20.913 16.991-47.57 27.163-76.605 27.163s-55.692-10.172-76.605-27.163c8.755-16.219 25.923-27.239 45.647-27.239 11.601 0 22.317 3.808 30.958 10.248a51.587 51.587 0 0 1 30.945-10.248z"/><path style="fill:#a81004" d="M377.624 258.15v14.473c0 33.59-13.613 63.992-35.627 85.993a119.15 119.15 0 0 1-9.387 8.464c-8.768-16.219-25.923-27.239-45.66-27.239a51.593 51.593 0 0 0-30.946 10.248c-8.641-6.44-19.357-10.248-30.958-10.248-19.724 0-36.892 11.02-45.647 27.239-27.479-22.279-45.027-56.325-45.027-94.457V258.15c67.18 67.167 176.085 67.167 243.252 0z"/><path style="fill:#4d4d4d" d="M168.58 181.703a9.49 9.49 0 0 0 18.978 0c0-33.141-26.962-60.103-60.103-60.103s-60.103 26.962-60.103 60.103a9.49 9.49 0 0 0 18.978 0c0-22.677 18.449-41.125 41.125-41.125s41.125 18.45 41.125 41.125zM384.546 121.602c-33.141 0-60.103 26.962-60.103 60.103a9.49 9.49 0 0 0 18.978 0c0-22.677 18.449-41.125 41.125-41.125 22.677 0 41.125 18.449 41.125 41.125a9.49 9.49 0 0 0 18.978 0c-.001-33.141-26.963-60.103-60.103-60.103z"/></svg>