<svg height="800" width="800" version="1.1" id="Layer_1" xmlns="http://www.w3.org/2000/svg" viewBox="0 0 512.009 512.009" xml:space="preserve"><circle style="fill:#f7b239" cx="256.004" cy="256.004" r="256.004"/><path style="fill:#e09b2d" d="M121.499 390.501C29.407 298.407 22.15 153.608 99.723 53.204A258.273 258.273 0 0 0 74.98 74.981c-99.974 99.974-99.974 262.065 0 362.038s262.065 99.974 362.038 0a258.428 258.428 0 0 0 21.777-24.743c-100.403 77.574-245.202 70.317-337.296-21.775z"/><path style="fill:#fff" d="M123.163 274.382h258.092c0 14.486-2.391 28.415-6.794 41.421H129.957c-4.403-13.005-6.794-26.935-6.794-41.421z"/><path style="fill:#a81004" d="M129.956 315.803H374.46c-8.679 25.632-25.189 47.633-46.684 63.182-9.033-15.22-25.632-25.417-44.622-25.417a51.593 51.593 0 0 0-30.946 10.248c-8.641-6.44-19.357-10.248-30.958-10.248-18.977 0-35.589 10.197-44.609 25.417-21.495-15.549-38.006-37.55-46.685-63.182z"/><path style="fill:#f95428" d="M283.153 353.568c18.99 0 35.589 10.197 44.622 25.417-21.242 15.384-47.355 24.443-75.568 24.443s-54.326-9.059-75.568-24.443c9.021-15.22 25.632-25.417 44.609-25.417 11.601 0 22.317 3.808 30.958 10.248a51.602 51.602 0 0 1 30.947-10.248z"/><path style="fill:#4d4d4d" d="M142.674 238.04c19.358 0 35.107-15.749 35.107-35.107s-15.749-35.107-35.107-35.107-35.107 15.749-35.107 35.107 15.749 35.107 35.107 35.107zM369.327 167.828c-19.358 0-35.107 15.749-35.107 35.107s15.749 35.107 35.107 35.107 35.107-15.749 35.107-35.107-15.75-35.107-35.107-35.107z"/></svg>