<svg height="800" width="800" version="1.1" id="Layer_1" xmlns="http://www.w3.org/2000/svg" viewBox="0 0 512 512" xml:space="preserve"><path style="fill:#ffe100" d="M502.467 255c0 136.533-110.933 247.467-247.467 247.467S7.533 391.533 7.533 255 118.467 7.533 255 7.533 502.467 118.467 502.467 255" transform="translate(1 1)"/><path style="fill:#ffa800" d="M255 7.533h-12.8C372.76 14.36 476.867 122.733 476.867 255S372.76 495.64 242.2 502.467H255c136.533 0 247.467-110.933 247.467-247.467S391.533 7.533 255 7.533" transform="translate(1 1)"/><path style="fill:#fff" d="M255 7.533h12.8C137.24 14.36 33.133 122.733 33.133 255S137.24 495.64 267.8 502.467H255C118.467 502.467 7.533 391.533 7.533 255S118.467 7.533 255 7.533" transform="translate(1 1)"/><path style="fill:#63d3fd" d="M138.947 280.6c-9.387 0-14.507 10.24-9.387 17.92 27.307 40.96 72.533 67.413 125.44 67.413s98.133-26.453 126.293-67.413c5.12-7.68 0-17.92-9.387-17.92H138.947z" transform="translate(1 1)"/><path style="fill:#3db9f9" d="M371.907 280.6h-25.6c9.387 0 14.507 10.24 9.387 17.92-25.6 37.547-65.707 63.147-113.493 66.56 4.267 0 8.533.853 12.8.853 52.907 0 98.133-26.453 126.293-67.413 5.119-7.68-.854-17.92-9.387-17.92" transform="translate(1 1)"/><path d="M255 511C114.2 511-1 395.8-1 255S114.2-1 255-1s256 115.2 256 256-115.2 256-256 256zm0-494.933C123.587 16.067 16.067 123.587 16.067 255S123.587 493.933 255 493.933 493.933 386.413 493.933 255 386.413 16.067 255 16.067z" transform="translate(1 1)"/><path d="M186.733 186.733c-5.12 0-8.533-3.413-8.533-8.533 0-14.507-11.093-25.6-25.6-25.6S127 163.693 127 178.2c0 5.12-3.413 8.533-8.533 8.533s-8.533-3.413-8.533-8.533c0-23.893 18.773-42.667 42.667-42.667s42.667 18.773 42.667 42.667c-.001 5.12-3.415 8.533-8.535 8.533zM391.533 186.733c-5.12 0-8.533-3.413-8.533-8.533 0-14.507-11.093-25.6-25.6-25.6s-25.6 11.093-25.6 25.6c0 5.12-3.413 8.533-8.533 8.533s-8.533-3.413-8.533-8.533c0-23.893 18.773-42.667 42.667-42.667 23.893 0 42.667 18.773 42.667 42.667-.001 5.12-3.415 8.533-8.535 8.533zM255 374.467c-52.907 0-103.253-26.453-133.12-70.827-4.267-5.973-4.267-14.507-.853-20.48 3.413-6.827 10.24-10.24 17.92-10.24h232.96c7.68 0 14.507 4.267 17.92 10.24 3.413 6.827 3.413 14.507-.853 20.48-30.721 44.373-81.067 70.827-133.974 70.827zm-116.053-85.334c-1.707 0-2.56.853-2.56 1.707 0 .853-.853 1.707 0 3.413C162.84 333.507 207.213 357.4 255 357.4s92.16-23.893 118.613-63.147c.853-1.707.853-2.56 0-3.413 0-.853-.853-1.707-2.56-1.707H138.947z" transform="translate(1 1)"/></svg>